<svg id="Layer_1" enable-background="new 0 0 511.431 511.431" height="512" viewBox="0 0 511.431 511.431" width="512" xmlns="http://www.w3.org/2000/svg"><path d="m21.056 21.09h317.333c13.255 0 24 10.745 24 24 0 14.491 0 323.299 0 314.667 0 13.255-10.745 24-24 24-10.943 0-301.188 0-317.333 0v-362.667z" fill="#f1ebeb"/><path d="m21.056 21.09 170.667 106.666v362.667l-170.667-106.667z" fill="#fe929f"/><path d="m362.39 234.756c-11.598 0-21 9.402-21 21v104c0 1.654-1.346 3-3 3h-125.667v-235c0-7.24-3.73-13.971-9.87-17.808l-108.575-67.859h244.112c1.654 0 3 1.346 3 3v40c0 11.598 9.402 21 21 21s21-9.402 21-21v-40c0-24.813-20.187-45-45-45-338.434 0-319.006-.546-323.895 1.06-7.557 2.487-13.326 9.183-14.291 17.532-.23 2.02-.148-24.069-.148 365.075 0 7.24 3.73 13.971 9.87 17.808l170.667 106.667c13.854 8.659 32.13-1.244 32.13-17.808v-85.667h125.667c24.813 0 45-20.187 45-45v-104c0-11.597-9.403-21-21-21zm-191.667 217.778-128.667-80.417v-313.138l128.667 80.417z"/><path d="m127.723 224.089c-11.598 0-21 9.402-21 21v21.334c0 11.598 9.402 21 21 21s21-9.402 21-21v-21.334c0-11.597-9.403-21-21-21z"/><path d="m426.056 170.423c0-11.598-9.402-21-21-21h-106.666c-11.598 0-21 9.402-21 21s9.402 21 21 21h106.666c11.597 0 21-9.402 21-21z"/><path d="m445.789 229.889c9.241 6.929 22.412 5.118 29.4-4.199l32-42.666c5.601-7.467 5.601-17.733 0-25.2l-32-42.667c-6.958-9.276-20.119-11.159-29.399-4.2-9.278 6.959-11.159 20.121-4.2 29.399l22.55 30.067-22.55 30.065c-6.959 9.279-5.079 22.442 4.199 29.401z"/><path d="m490.39 277.423h-53.334c-11.598 0-21 9.402-21 21s9.402 21 21 21h53.334c11.598 0 21-9.402 21-21s-9.403-21-21-21z"/></svg>